name analog
datacolumns 19
datarows 35
range 0.1915 0.2085
endheader
time	ground_force_vx	ground_force_vy	ground_force_vz	ground_force_px	ground_force_py	ground_force_pz	l_ground_force_vx	l_ground_force_vy	l_ground_force_vz	l_ground_force_px	l_ground_force_py	l_ground_force_pz	ground_torque_x	ground_torque_y	ground_torque_z	l_ground_torque_x	l_ground_torque_y	l_ground_torque_z
0.1915	-0.0	-0.0	-0.0	9.693439483642578	-3.654346466064453	-723.0429077148438	-0.0	-0.0	-0.0	-0.0	-0.0	-0.0	-0.0	-0.0	-0.0	-0.0	-0.0	-0.0
0.192	-0.0	-0.0	-0.0	9.379074096679688	-3.752792835235596	-724.7725830078125	-0.0	-0.0	-0.0	-0.0	-0.0	-0.0	-0.0	-0.0	-0.0	-0.0	-0.0	-0.0
0.1925	-0.0	-0.0	-0.0	9.791672706604004	-3.199453830718994	-724.7618408203125	-0.0	-0.0	-0.0	-0.0	-0.0	-0.0	-0.0	-0.0	-0.0	-0.0	-0.0	-0.0
0.193	-0.0	-0.0	-0.0	9.942373275756836	-2.1666948795318604	-724.798095703125	-0.0	-0.0	-0.0	-0.0	-0.0	-0.0	-0.0	-0.0	-0.0	-0.0	-0.0	-0.0
0.1935	-0.0	-0.0	-0.0	10.277451515197754	-1.011330008506775	-727.46435546875	-0.0	-0.0	-0.0	-0.0	-0.0	-0.0	-0.0	-0.0	-0.0	-0.0	-0.0	-0.0
0.194	-0.0	-0.0	-0.0	10.169998168945312	0.7621272802352905	-728.3644409179688	-0.0	-0.0	-0.0	-0.0	-0.0	-0.0	-0.0	-0.0	-0.0	-0.0	-0.0	-0.0
0.1945	-0.0	-0.0	-0.0	10.152010917663574	2.304273843765259	-730.02294921875	-0.0	-0.0	-0.0	-0.0	-0.0	-0.0	-0.0	-0.0	-0.0	-0.0	-0.0	-0.0
0.195	-0.0	-0.0	-0.0	9.924676895141602	3.623146295547485	-730.411376953125	-0.0	-0.0	-0.0	-0.0	-0.0	-0.0	-0.0	-0.0	-0.0	-0.0	-0.0	-0.0
0.1955	-0.0	-0.0	-0.0	9.228866577148438	4.220442295074463	-730.8533935546875	-0.0	-0.0	-0.0	-0.0	-0.0	-0.0	-0.0	-0.0	-0.0	-0.0	-0.0	-0.0
0.196	-0.0	-0.0	-0.0	8.889642715454102	5.307653903961182	-732.1419677734375	-0.0	-0.0	-0.0	-0.0	-0.0	-0.0	-0.0	-0.0	-0.0	-0.0	-0.0	-0.0
0.1965	-0.0	-0.0	-0.0	9.223573684692385	6.158712863922119	-734.6142578125	-0.0	-0.0	-0.0	-0.0	-0.0	-0.0	-0.0	-0.0	-0.0	-0.0	-0.0	-0.0
0.197	-0.0	-0.0	-0.0	8.961332321166992	6.831435203552246	-735.7765502929688	-0.0	-0.0	-0.0	-0.0	-0.0	-0.0	-0.0	-0.0	-0.0	-0.0	-0.0	-0.0
0.1975	-0.0	-0.0	-0.0	8.938220024108887	6.8227643966674805	-735.7417602539062	-0.0	-0.0	-0.0	-0.0	-0.0	-0.0	-0.0	-0.0	-0.0	-0.0	-0.0	-0.0
0.198	-0.0	-0.0	-0.0	8.904011726379395	7.291668891906738	-738.8186645507812	-0.0	-0.0	-0.0	-0.0	-0.0	-0.0	-0.0	-0.0	-0.0	-0.0	-0.0	-0.0
0.1985	-0.0	-0.0	-0.0	8.831840515136719	7.293656349182129	-738.8189697265625	-0.0	-0.0	-0.0	-0.0	-0.0	-0.0	-0.0	-0.0	-0.0	-0.0	-0.0	-0.0
0.199	-0.0	-0.0	-0.0	8.320260047912598	6.748826503753662	-739.20556640625	-0.0	-0.0	-0.0	-0.0	-0.0	-0.0	-0.0	-0.0	-0.0	-0.0	-0.0	-0.0
0.1995	-0.0	-0.0	-0.0	8.42623519897461	6.627750873565674	-740.1334228515625	-0.0	-0.0	-0.0	-0.0	-0.0	-0.0	-0.0	-0.0	-0.0	-0.0	-0.0	-0.0
0.2	-0.0	-0.0	-0.0	8.296577453613281	6.149997711181641	-738.080810546875	-0.0	-0.0	-0.0	-0.0	-0.0	-0.0	-0.0	-0.0	-0.0	-0.0	-0.0	-0.0
0.2005	-0.0	-0.0	-0.0	7.955759525299072	5.055956840515137	-738.9805297851562	-0.0	-0.0	-0.0	-0.0	-0.0	-0.0	-0.0	-0.0	-0.0	-0.0	-0.0	-0.0
0.201	-0.0	-0.0	-0.0	7.6721038818359375	4.4322004318237305	-740.1046142578125	-0.0	-0.0	-0.0	-0.0	-0.0	-0.0	-0.0	-0.0	-0.0	-0.0	-0.0	-0.0
0.2015	-0.0	-0.0	-0.0	6.934304714202881	4.026930332183838	-741.5172119140625	-0.0	-0.0	-0.0	-0.0	-0.0	-0.0	-0.0	-0.0	-0.0	-0.0	-0.0	-0.0
0.202	-0.0	-0.0	-0.0	6.707522869110107	4.018824100494385	-740.4574584960938	-0.0	-0.0	-0.0	-0.0	-0.0	-0.0	-0.0	-0.0	-0.0	-0.0	-0.0	-0.0
0.2025	-0.0	-0.0	-0.0	6.820648670196533	3.7919938564300537	-740.7792358398438	-0.0	-0.0	-0.0	-0.0	-0.0	-0.0	-0.0	-0.0	-0.0	-0.0	-0.0	-0.0
0.203	-0.0	-0.0	-0.0	6.6187591552734375	3.354132652282715	-740.0730590820312	-0.0	-0.0	-0.0	-0.0	-0.0	-0.0	-0.0	-0.0	-0.0	-0.0	-0.0	-0.0
0.20350000000000001	-0.0	-0.0	-0.0	6.262181282043457	3.1524996757507324	-740.779541015625	-0.0	-0.0	-0.0	-0.0	-0.0	-0.0	-0.0	-0.0	-0.0	-0.0	-0.0	-0.0
0.20400000000000001	-0.0	-0.0	-0.0	6.000250339508057	2.6332011222839355	-738.499267578125	-0.0	-0.0	-0.0	-0.0	-0.0	-0.0	-0.0	-0.0	-0.0	-0.0	-0.0	-0.0
0.20450000000000002	-0.0	-0.0	-0.0	5.750257968902588	3.1679458618164062	-737.984619140625	-0.0	-0.0	-0.0	-0.0	-0.0	-0.0	-0.0	-0.0	-0.0	-0.0	-0.0	-0.0
0.20500000000000002	-0.0	-0.0	-0.0	5.984668731689453	3.977639675140381	-737.1165161132812	-0.0	-0.0	-0.0	-0.0	-0.0	-0.0	-0.0	-0.0	-0.0	-0.0	-0.0	-0.0
0.20550000000000002	-0.0	-0.0	-0.0	6.553221702575684	4.642275810241699	-737.0568237304688	-0.0	-0.0	-0.0	-0.0	-0.0	-0.0	-0.0	-0.0	-0.0	-0.0	-0.0	-0.0
0.20600000000000002	-0.0	-0.0	-0.0	6.237298965454102	5.4109649658203125	-736.159423828125	-0.0	-0.0	-0.0	-0.0	-0.0	-0.0	-0.0	-0.0	-0.0	-0.0	-0.0	-0.0
0.20650000000000002	-0.0	-0.0	-0.0	5.921456336975098	6.287370681762695	-732.6280517578125	-0.0	-0.0	-0.0	-0.0	-0.0	-0.0	-0.0	-0.0	-0.0	-0.0	-0.0	-0.0
0.20700000000000002	-0.0	-0.0	-0.0	5.49737548828125	6.64385461807251	-731.5978393554688	-0.0	-0.0	-0.0	-0.0	-0.0	-0.0	-0.0	-0.0	-0.0	-0.0	-0.0	-0.0
0.20750000000000002	-0.0	-0.0	-0.0	5.140455722808838	7.412278652191162	-729.0684204101562	-0.0	-0.0	-0.0	-0.0	-0.0	-0.0	-0.0	-0.0	-0.0	-0.0	-0.0	-0.0
0.20800000000000002	-0.0	-0.0	-0.0	4.8173675537109375	7.713356018066406	-728.1229858398438	-0.0	-0.0	-0.0	-0.0	-0.0	-0.0	-0.0	-0.0	-0.0	-0.0	-0.0	-0.0
0.2085	-0.0	-0.0	-0.0	5.138792991638184	7.8915791511535645	-725.5941772460938	-0.0	-0.0	-0.0	-0.0	-0.0	-0.0	-0.0	-0.0	-0.0	-0.0	-0.0	-0.0
